<svg xmlns="http://www.w3.org/2000/svg" width="828" height="128">
    <style>
        #Cell { shape-rendering: geometricPrecision; }

        #Background { fill: #ffffff; }
        #Cell0 { fill: #ebedf0; outline-offset: -1px; outline: 1px solid rgba(27, 31, 35, 0.06); }
        #Cell1 { fill: #9be9a8; outline-offset: -1px; outline: 1px solid rgba(27, 31, 35, 0.06); }
        #Cell2 { fill: #40c463; outline-offset: -1px; outline: 1px solid rgba(27, 31, 35, 0.06); }
        #Cell3 { fill: #30a14e; outline-offset: -1px; outline: 1px solid rgba(27, 31, 35, 0.06); }
        #Cell4 { fill: #216e39; outline-offset: -1px; outline: 1px solid rgba(27, 31, 35, 0.06); }

        .Label {
            font-family: -apple-system,BlinkMacSystemFont,"Segoe UI",Helvetica,Arial,sans-serif,"Apple Color Emoji","Segoe UI Emoji";
            font-size: 12px;
            fill: #24292f;
        }

        @media (prefers-color-scheme: dark) {
            #Background { fill: #22272e; }
            #Cell0 { fill: #2d333b; outline-offset: -1px; outline: 1px solid rgba(27, 31, 35, 0.06); }
            #Cell1 { fill: #0e4429; outline-offset: -1px; outline: 1px solid rgba(255, 255, 255, 0.05); }
            #Cell2 { fill: #006d32; outline-offset: -1px; outline: 1px solid rgba(255, 255, 255, 0.05); }
            #Cell3 { fill: #26a641; outline-offset: -1px; outline: 1px solid rgba(255, 255, 255, 0.05); }
            #Cell4 { fill: #39d353; outline-offset: -1px; outline: 1px solid rgba(255, 255, 255, 0.05); }
            .Label { fill: #adbac7; }
        }
    </style>
    
    <rect id="Cell" width="11" height="11" x="0" rx="2" ry="2" />

    <use href="#Cell" id="Cell0" />
    <use href="#Cell" id="Cell1" />
    <use href="#Cell" id="Cell2" />
    <use href="#Cell" id="Cell3" />
    <use href="#Cell" id="Cell4" />

    <rect id="Background" width="823" height="128"/>
    <g transform="translate(15, 20)">
        <g transform="translate( 16, 0)"><use href="#Cell0" y="0"/><use href="#Cell0" y="15"/><use href="#Cell0" y="30"/><use href="#Cell0" y="45"/><use href="#Cell0" y="60"/><use href="#Cell0" y="75"/><use href="#Cell0" y="90"/></g>
        <g transform="translate( 31, 0)"><use href="#Cell0" y="0"/><use href="#Cell0" y="15"/><use href="#Cell0" y="30"/><use href="#Cell0" y="45"/><use href="#Cell0" y="60"/><use href="#Cell0" y="75"/><use href="#Cell0" y="90"/></g>
        <g transform="translate( 46, 0)"><use href="#Cell0" y="0"/><use href="#Cell0" y="15"/><use href="#Cell0" y="30"/><use href="#Cell0" y="45"/><use href="#Cell3" y="60"/><use href="#Cell4" y="75"/><use href="#Cell0" y="90"/></g>
        <g transform="translate( 61, 0)"><use href="#Cell0" y="0"/><use href="#Cell0" y="15"/><use href="#Cell0" y="30"/><use href="#Cell0" y="45"/><use href="#Cell0" y="60"/><use href="#Cell4" y="75"/><use href="#Cell0" y="90"/></g>
        <g transform="translate( 76, 0)"><use href="#Cell0" y="0"/><use href="#Cell1" y="15"/><use href="#Cell2" y="30"/><use href="#Cell2" y="45"/><use href="#Cell3" y="60"/><use href="#Cell4" y="75"/><use href="#Cell0" y="90"/></g>
        <g transform="translate( 91, 0)"><use href="#Cell0" y="0"/><use href="#Cell0" y="15"/><use href="#Cell0" y="30"/><use href="#Cell0" y="45"/><use href="#Cell0" y="60"/><use href="#Cell0" y="75"/><use href="#Cell0" y="90"/></g>
        <g transform="translate(106, 0)"><use href="#Cell0" y="0"/><use href="#Cell1" y="15"/><use href="#Cell2" y="30"/><use href="#Cell2" y="45"/><use href="#Cell3" y="60"/><use href="#Cell4" y="75"/><use href="#Cell0" y="90"/></g>
        <g transform="translate(121, 0)"><use href="#Cell0" y="0"/><use href="#Cell1" y="15"/><use href="#Cell0" y="30"/><use href="#Cell2" y="45"/><use href="#Cell0" y="60"/><use href="#Cell0" y="75"/><use href="#Cell0" y="90"/></g>
        <g transform="translate(136, 0)"><use href="#Cell0" y="0"/><use href="#Cell1" y="15"/><use href="#Cell2" y="30"/><use href="#Cell2" y="45"/><use href="#Cell3" y="60"/><use href="#Cell4" y="75"/><use href="#Cell0" y="90"/></g>
        <g transform="translate(151, 0)"><use href="#Cell0" y="0"/><use href="#Cell0" y="15"/><use href="#Cell0" y="30"/><use href="#Cell0" y="45"/><use href="#Cell0" y="60"/><use href="#Cell0" y="75"/><use href="#Cell0" y="90"/></g>
        <g transform="translate(166, 0)"><use href="#Cell0" y="0"/><use href="#Cell1" y="15"/><use href="#Cell0" y="30"/><use href="#Cell0" y="45"/><use href="#Cell0" y="60"/><use href="#Cell0" y="75"/><use href="#Cell0" y="90"/></g>
        <g transform="translate(181, 0)"><use href="#Cell0" y="0"/><use href="#Cell1" y="15"/><use href="#Cell2" y="30"/><use href="#Cell2" y="45"/><use href="#Cell3" y="60"/><use href="#Cell4" y="75"/><use href="#Cell0" y="90"/></g>
        <g transform="translate(196, 0)"><use href="#Cell0" y="0"/><use href="#Cell1" y="15"/><use href="#Cell0" y="30"/><use href="#Cell0" y="45"/><use href="#Cell0" y="60"/><use href="#Cell0" y="75"/><use href="#Cell0" y="90"/></g>
        <g transform="translate(211, 0)"><use href="#Cell0" y="0"/><use href="#Cell0" y="15"/><use href="#Cell0" y="30"/><use href="#Cell0" y="45"/><use href="#Cell0" y="60"/><use href="#Cell0" y="75"/><use href="#Cell0" y="90"/></g>
        <g transform="translate(226, 0)"><use href="#Cell0" y="0"/><use href="#Cell1" y="15"/><use href="#Cell2" y="30"/><use href="#Cell2" y="45"/><use href="#Cell3" y="60"/><use href="#Cell4" y="75"/><use href="#Cell0" y="90"/></g>
        <g transform="translate(241, 0)"><use href="#Cell0" y="0"/><use href="#Cell0" y="15"/><use href="#Cell0" y="30"/><use href="#Cell0" y="45"/><use href="#Cell0" y="60"/><use href="#Cell0" y="75"/><use href="#Cell0" y="90"/></g>
        <g transform="translate(256, 0)"><use href="#Cell0" y="0"/><use href="#Cell1" y="15"/><use href="#Cell2" y="30"/><use href="#Cell2" y="45"/><use href="#Cell3" y="60"/><use href="#Cell4" y="75"/><use href="#Cell0" y="90"/></g>
        <g transform="translate(271, 0)"><use href="#Cell0" y="0"/><use href="#Cell1" y="15"/><use href="#Cell2" y="30"/><use href="#Cell0" y="45"/><use href="#Cell0" y="60"/><use href="#Cell0" y="75"/><use href="#Cell0" y="90"/></g>
        <g transform="translate(286, 0)"><use href="#Cell0" y="0"/><use href="#Cell0" y="15"/><use href="#Cell0" y="30"/><use href="#Cell2" y="45"/><use href="#Cell3" y="60"/><use href="#Cell0" y="75"/><use href="#Cell0" y="90"/></g>
        <g transform="translate(301, 0)"><use href="#Cell0" y="0"/><use href="#Cell1" y="15"/><use href="#Cell2" y="30"/><use href="#Cell2" y="45"/><use href="#Cell3" y="60"/><use href="#Cell4" y="75"/><use href="#Cell0" y="90"/></g>
        <g transform="translate(316, 0)"><use href="#Cell0" y="0"/><use href="#Cell0" y="15"/><use href="#Cell0" y="30"/><use href="#Cell0" y="45"/><use href="#Cell0" y="60"/><use href="#Cell0" y="75"/><use href="#Cell0" y="90"/></g>
        <g transform="translate(331, 0)"><use href="#Cell0" y="0"/><use href="#Cell0" y="15"/><use href="#Cell0" y="30"/><use href="#Cell0" y="45"/><use href="#Cell0" y="60"/><use href="#Cell0" y="75"/><use href="#Cell0" y="90"/></g>
        <g transform="translate(346, 0)"><use href="#Cell0" y="0"/><use href="#Cell0" y="15"/><use href="#Cell0" y="30"/><use href="#Cell0" y="45"/><use href="#Cell0" y="60"/><use href="#Cell0" y="75"/><use href="#Cell0" y="90"/></g>
        <g transform="translate(361, 0)"><use href="#Cell0" y="0"/><use href="#Cell1" y="15"/><use href="#Cell2" y="30"/><use href="#Cell2" y="45"/><use href="#Cell0" y="60"/><use href="#Cell4" y="75"/><use href="#Cell0" y="90"/></g>
        <g transform="translate(376, 0)"><use href="#Cell0" y="0"/><use href="#Cell1" y="15"/><use href="#Cell0" y="30"/><use href="#Cell2" y="45"/><use href="#Cell0" y="60"/><use href="#Cell4" y="75"/><use href="#Cell0" y="90"/></g>
        <g transform="translate(391, 0)"><use href="#Cell0" y="0"/><use href="#Cell1" y="15"/><use href="#Cell0" y="30"/><use href="#Cell2" y="45"/><use href="#Cell3" y="60"/><use href="#Cell4" y="75"/><use href="#Cell0" y="90"/></g>
        <g transform="translate(406, 0)"><use href="#Cell0" y="0"/><use href="#Cell0" y="15"/><use href="#Cell0" y="30"/><use href="#Cell0" y="45"/><use href="#Cell0" y="60"/><use href="#Cell0" y="75"/><use href="#Cell0" y="90"/></g>
        <g transform="translate(421, 0)"><use href="#Cell0" y="0"/><use href="#Cell1" y="15"/><use href="#Cell2" y="30"/><use href="#Cell2" y="45"/><use href="#Cell3" y="60"/><use href="#Cell4" y="75"/><use href="#Cell0" y="90"/></g>
        <g transform="translate(436, 0)"><use href="#Cell0" y="0"/><use href="#Cell1" y="15"/><use href="#Cell0" y="30"/><use href="#Cell2" y="45"/><use href="#Cell0" y="60"/><use href="#Cell0" y="75"/><use href="#Cell0" y="90"/></g>
        <g transform="translate(451, 0)"><use href="#Cell0" y="0"/><use href="#Cell1" y="15"/><use href="#Cell2" y="30"/><use href="#Cell2" y="45"/><use href="#Cell3" y="60"/><use href="#Cell4" y="75"/><use href="#Cell0" y="90"/></g>
        <g transform="translate(466, 0)"><use href="#Cell0" y="0"/><use href="#Cell0" y="15"/><use href="#Cell0" y="30"/><use href="#Cell0" y="45"/><use href="#Cell0" y="60"/><use href="#Cell0" y="75"/><use href="#Cell0" y="90"/></g>
        <g transform="translate(481, 0)"><use href="#Cell0" y="0"/><use href="#Cell1" y="15"/><use href="#Cell2" y="30"/><use href="#Cell2" y="45"/><use href="#Cell3" y="60"/><use href="#Cell4" y="75"/><use href="#Cell0" y="90"/></g>
        <g transform="translate(496, 0)"><use href="#Cell0" y="0"/><use href="#Cell1" y="15"/><use href="#Cell2" y="30"/><use href="#Cell0" y="45"/><use href="#Cell0" y="60"/><use href="#Cell0" y="75"/><use href="#Cell0" y="90"/></g>
        <g transform="translate(511, 0)"><use href="#Cell0" y="0"/><use href="#Cell0" y="15"/><use href="#Cell0" y="30"/><use href="#Cell2" y="45"/><use href="#Cell3" y="60"/><use href="#Cell0" y="75"/><use href="#Cell0" y="90"/></g>
        <g transform="translate(526, 0)"><use href="#Cell0" y="0"/><use href="#Cell1" y="15"/><use href="#Cell2" y="30"/><use href="#Cell2" y="45"/><use href="#Cell3" y="60"/><use href="#Cell4" y="75"/><use href="#Cell0" y="90"/></g>
        <g transform="translate(541, 0)"><use href="#Cell0" y="0"/><use href="#Cell0" y="15"/><use href="#Cell0" y="30"/><use href="#Cell0" y="45"/><use href="#Cell0" y="60"/><use href="#Cell0" y="75"/><use href="#Cell0" y="90"/></g>
        <g transform="translate(556, 0)"><use href="#Cell0" y="0"/><use href="#Cell1" y="15"/><use href="#Cell2" y="30"/><use href="#Cell2" y="45"/><use href="#Cell3" y="60"/><use href="#Cell4" y="75"/><use href="#Cell0" y="90"/></g>
        <g transform="translate(571, 0)"><use href="#Cell0" y="0"/><use href="#Cell1" y="15"/><use href="#Cell0" y="30"/><use href="#Cell0" y="45"/><use href="#Cell0" y="60"/><use href="#Cell4" y="75"/><use href="#Cell0" y="90"/></g>
        <g transform="translate(586, 0)"><use href="#Cell0" y="0"/><use href="#Cell1" y="15"/><use href="#Cell0" y="30"/><use href="#Cell2" y="45"/><use href="#Cell3" y="60"/><use href="#Cell4" y="75"/><use href="#Cell0" y="90"/></g>
        <g transform="translate(601, 0)"><use href="#Cell0" y="0"/><use href="#Cell0" y="15"/><use href="#Cell0" y="30"/><use href="#Cell0" y="45"/><use href="#Cell0" y="60"/><use href="#Cell0" y="75"/><use href="#Cell0" y="90"/></g>
        <g transform="translate(616, 0)"><use href="#Cell0" y="0"/><use href="#Cell1" y="15"/><use href="#Cell2" y="30"/><use href="#Cell2" y="45"/><use href="#Cell3" y="60"/><use href="#Cell4" y="75"/><use href="#Cell0" y="90"/></g>
        <g transform="translate(631, 0)"><use href="#Cell0" y="0"/><use href="#Cell0" y="15"/><use href="#Cell0" y="30"/><use href="#Cell2" y="45"/><use href="#Cell0" y="60"/><use href="#Cell0" y="75"/><use href="#Cell0" y="90"/></g>
        <g transform="translate(646, 0)"><use href="#Cell0" y="0"/><use href="#Cell1" y="15"/><use href="#Cell2" y="30"/><use href="#Cell2" y="45"/><use href="#Cell3" y="60"/><use href="#Cell4" y="75"/><use href="#Cell0" y="90"/></g>
        <g transform="translate(661, 0)"><use href="#Cell0" y="0"/><use href="#Cell0" y="15"/><use href="#Cell0" y="30"/><use href="#Cell0" y="45"/><use href="#Cell0" y="60"/><use href="#Cell0" y="75"/><use href="#Cell0" y="90"/></g>
        <g transform="translate(676, 0)"><use href="#Cell0" y="0"/><use href="#Cell1" y="15"/><use href="#Cell2" y="30"/><use href="#Cell2" y="45"/><use href="#Cell0" y="60"/><use href="#Cell0" y="75"/><use href="#Cell0" y="90"/></g>
        <g transform="translate(691, 0)"><use href="#Cell0" y="0"/><use href="#Cell0" y="15"/><use href="#Cell0" y="30"/><use href="#Cell0" y="45"/><use href="#Cell3" y="60"/><use href="#Cell0" y="75"/><use href="#Cell0" y="90"/></g>
        <g transform="translate(706, 0)"><use href="#Cell0" y="0"/><use href="#Cell0" y="15"/><use href="#Cell0" y="30"/><use href="#Cell0" y="45"/><use href="#Cell0" y="60"/><use href="#Cell4" y="75"/><use href="#Cell0" y="90"/></g>
        <g transform="translate(721, 0)"><use href="#Cell0" y="0"/><use href="#Cell1" y="15"/><use href="#Cell2" y="30"/><use href="#Cell2" y="45"/><use href="#Cell3" y="60"/><use href="#Cell0" y="75"/><use href="#Cell0" y="90"/></g>
        <g transform="translate(736, 0)"><use href="#Cell0" y="0"/><use href="#Cell0" y="15"/><use href="#Cell0" y="30"/><use href="#Cell0" y="45"/><use href="#Cell0" y="60"/><use href="#Cell0" y="75"/><use href="#Cell0" y="90"/></g>
        <g transform="translate(751, 0)"><use href="#Cell0" y="0"/><use href="#Cell1" y="15"/><use href="#Cell2" y="30"/><use href="#Cell2" y="45"/><use href="#Cell3" y="60"/><use href="#Cell4" y="75"/><use href="#Cell0" y="90"/></g>
        <g transform="translate(766, 0)"><use href="#Cell0" y="0"/><use href="#Cell0" y="15"/><use href="#Cell0" y="30"/><use href="#Cell0" y="45"/><use href="#Cell0" y="60"/><use href="#Cell0" y="75"/><use href="#Cell0" y="90"/></g>
        <g transform="translate(781, 0)"><use href="#Cell0" y="0"/><use href="#Cell0" y="15"/><use href="#Cell0" y="30"/><use href="#Cell0" y="45"/><use href="#Cell0" y="60"/><use href="#Cell0" y="75"/><use href="#Cell0" y="90"/></g>
        <g transform="translate(796, 0)"><use href="#Cell0" y="0"/><use href="#Cell0" y="15"/><use href="#Cell0" y="30"/><use href="#Cell0" y="45"/></g>
        <text x="31"  y="-8" class="Label">Oct</text>
        <text x="91"  y="-8" class="Label">Nov</text>
        <text x="166" y="-8" class="Label">Dec</text>
        <text x="226" y="-8" class="Label">Jan</text>
        <text x="301" y="-8" class="Label">Feb</text>
        <text x="361" y="-8" class="Label">Mar</text>
        <text x="421" y="-8" class="Label">Apr</text>
        <text x="481" y="-8" class="Label">May</text>
        <text x="556" y="-8" class="Label">Jun</text>
        <text x="616" y="-8" class="Label">Jul</text>
        <text x="676" y="-8" class="Label">Aug</text>
        <text x="751" y="-8" class="Label">Sep</text>
        <text text-anchor="start" class="Label" dx="-15" dy="8"  style="display:none;">Sun</text>
        <text text-anchor="start" class="Label" dx="-15" dy="25"                      >Mon</text>
        <text text-anchor="start" class="Label" dx="-15" dy="32" style="display:none;">Tue</text>
        <text text-anchor="start" class="Label" dx="-15" dy="56"                      >Wed</text>
        <text text-anchor="start" class="Label" dx="-15" dy="57" style="display:none;">Thu</text>
        <text text-anchor="start" class="Label" dx="-15" dy="85"                      >Fri</text>
        <text text-anchor="start" class="Label" dx="-15" dy="81" style="display:none;">Sat</text>
    </g>
</svg>
