<svg xmlns="http://www.w3.org/2000/svg" width="828" height="128" style="font-family: -apple-system,BlinkMacSystemFont,'Segoe UI',Helvetica,Arial,sans-serif,'Apple Color Emoji','Segoe UI Emoji'; font-size:9px; line-height:1.5; fill:#24292f; ">
	<style>
		.ContributionCalendar-day, .ContributionCalendar-day[data-level="0"] {
			fill: #ebedf0;
			shape-rendering: geometricPrecision;
			outline:1px solid rgba(27, 31, 35, 0.06);
			outline-offset:-1px;
		}
		
		.ContributionCalendar-day[data-level="1"] {
			fill: #9be9a8;
		}
		
		.ContributionCalendar-day[data-level="2"] {
			fill: #40c463;
		}
		
		.ContributionCalendar-day[data-level="3"] {
			fill: #30a14e;
		}
		
		.ContributionCalendar-day[data-level="4"] {
			fill: #216e39;
		}
		
		.ContributionCalendar-label {
			font-family: -apple-system,BlinkMacSystemFont,"Segoe UI",Helvetica,Arial,sans-serif,"Apple Color Emoji","Segoe UI Emoji";
			font-size: 9px;
			fill: #24292f;
		}

		@media (prefers-color-scheme: dark) {
			.ContributionCalendar-day, .ContributionCalendar-day[data-level="0"] {
				fill: #2d333b;
			}

			.ContributionCalendar-day[data-level="1"] {
				fill: #0e4429;
			}
			
			.ContributionCalendar-day[data-level="2"] {
				fill: #006d32;
			}
			
			.ContributionCalendar-day[data-level="3"] {
				fill: #26a641;
			}
			
			.ContributionCalendar-day[data-level="4"] {
				fill: #39d353;
			}

			.ContributionCalendar-label {
				fill: #adbac7;
			}
		}
	</style>
	<g transform="translate(10, 20)">
		<g transform="translate(16, 0)">
			<rect width="11" height="11" x="0" y="0" class="ContributionCalendar-day" rx="2" ry="2" data-level="0"/>
			<rect width="11" height="11" x="0" y="15" class="ContributionCalendar-day" rx="2" ry="2" data-level="0"/>
			<rect width="11" height="11" x="0" y="30" class="ContributionCalendar-day" rx="2" ry="2" data-level="0"/>
			<rect width="11" height="11" x="0" y="45" class="ContributionCalendar-day" rx="2" ry="2" data-level="0"/>
			<rect width="11" height="11" x="0" y="60" class="ContributionCalendar-day" rx="2" ry="2" data-level="0"/>
			<rect width="11" height="11" x="0" y="75" class="ContributionCalendar-day" rx="2" ry="2" data-level="0"/>
			<rect width="11" height="11" x="0" y="90" class="ContributionCalendar-day" rx="2" ry="2" data-level="0"/>
		</g>
		<g transform="translate(31, 0)">
			<rect width="11" height="11" x="0" y="0" class="ContributionCalendar-day" rx="2" ry="2" data-level="0"/>
			<rect width="11" height="11" x="0" y="15" class="ContributionCalendar-day" rx="2" ry="2" data-level="0"/>
			<rect width="11" height="11" x="0" y="30" class="ContributionCalendar-day" rx="2" ry="2" data-level="0"/>
			<rect width="11" height="11" x="0" y="45" class="ContributionCalendar-day" rx="2" ry="2" data-level="0"/>
			<rect width="11" height="11" x="0" y="60" class="ContributionCalendar-day" rx="2" ry="2" data-level="0"/>
			<rect width="11" height="11" x="0" y="75" class="ContributionCalendar-day" rx="2" ry="2" data-level="0"/>
			<rect width="11" height="11" x="0" y="90" class="ContributionCalendar-day" rx="2" ry="2" data-level="0"/>
		</g>
		<g transform="translate(46, 0)">
			<rect width="11" height="11" x="0" y="0" class="ContributionCalendar-day" rx="2" ry="2" data-level="0"/>
			<rect width="11" height="11" x="0" y="15" class="ContributionCalendar-day" rx="2" ry="2" data-level="0"/>
			<rect width="11" height="11" x="0" y="30" class="ContributionCalendar-day" rx="2" ry="2" data-level="0"/>
			<rect width="11" height="11" x="0" y="45" class="ContributionCalendar-day" rx="2" ry="2" data-level="0"/>
			<rect width="11" height="11" x="0" y="60" class="ContributionCalendar-day" rx="2" ry="2" data-level="3"/>
			<rect width="11" height="11" x="0" y="75" class="ContributionCalendar-day" rx="2" ry="2" data-level="4"/>
			<rect width="11" height="11" x="0" y="90" class="ContributionCalendar-day" rx="2" ry="2" data-level="0"/>
		</g>
		<g transform="translate(61, 0)">
			<rect width="11" height="11" x="0" y="0" class="ContributionCalendar-day" rx="2" ry="2" data-level="0"/>
			<rect width="11" height="11" x="0" y="15" class="ContributionCalendar-day" rx="2" ry="2" data-level="0"/>
			<rect width="11" height="11" x="0" y="30" class="ContributionCalendar-day" rx="2" ry="2" data-level="0"/>
			<rect width="11" height="11" x="0" y="45" class="ContributionCalendar-day" rx="2" ry="2" data-level="0"/>
			<rect width="11" height="11" x="0" y="60" class="ContributionCalendar-day" rx="2" ry="2" data-level="0"/>
			<rect width="11" height="11" x="0" y="75" class="ContributionCalendar-day" rx="2" ry="2" data-level="4"/>
			<rect width="11" height="11" x="0" y="90" class="ContributionCalendar-day" rx="2" ry="2" data-level="0"/>
		</g>
		<g transform="translate(76, 0)">
			<rect width="11" height="11" x="0" y="0" class="ContributionCalendar-day" rx="2" ry="2" data-level="0"/>
			<rect width="11" height="11" x="0" y="15" class="ContributionCalendar-day" rx="2" ry="2" data-level="1"/>
			<rect width="11" height="11" x="0" y="30" class="ContributionCalendar-day" rx="2" ry="2" data-level="2"/>
			<rect width="11" height="11" x="0" y="45" class="ContributionCalendar-day" rx="2" ry="2" data-level="2"/>
			<rect width="11" height="11" x="0" y="60" class="ContributionCalendar-day" rx="2" ry="2" data-level="3"/>
			<rect width="11" height="11" x="0" y="75" class="ContributionCalendar-day" rx="2" ry="2" data-level="4"/>
			<rect width="11" height="11" x="0" y="90" class="ContributionCalendar-day" rx="2" ry="2" data-level="0"/>
		</g>
		<g transform="translate(91, 0)">
			<rect width="11" height="11" x="0" y="0" class="ContributionCalendar-day" rx="2" ry="2" data-level="0"/>
			<rect width="11" height="11" x="0" y="15" class="ContributionCalendar-day" rx="2" ry="2" data-level="0"/>
			<rect width="11" height="11" x="0" y="30" class="ContributionCalendar-day" rx="2" ry="2" data-level="0"/>
			<rect width="11" height="11" x="0" y="45" class="ContributionCalendar-day" rx="2" ry="2" data-level="0"/>
			<rect width="11" height="11" x="0" y="60" class="ContributionCalendar-day" rx="2" ry="2" data-level="0"/>
			<rect width="11" height="11" x="0" y="75" class="ContributionCalendar-day" rx="2" ry="2" data-level="0"/>
			<rect width="11" height="11" x="0" y="90" class="ContributionCalendar-day" rx="2" ry="2" data-level="0"/>
		</g>
		<g transform="translate(106, 0)">
			<rect width="11" height="11" x="0" y="0" class="ContributionCalendar-day" rx="2" ry="2" data-level="0"/>
			<rect width="11" height="11" x="0" y="15" class="ContributionCalendar-day" rx="2" ry="2" data-level="1"/>
			<rect width="11" height="11" x="0" y="30" class="ContributionCalendar-day" rx="2" ry="2" data-level="2"/>
			<rect width="11" height="11" x="0" y="45" class="ContributionCalendar-day" rx="2" ry="2" data-level="2"/>
			<rect width="11" height="11" x="0" y="60" class="ContributionCalendar-day" rx="2" ry="2" data-level="3"/>
			<rect width="11" height="11" x="0" y="75" class="ContributionCalendar-day" rx="2" ry="2" data-level="4"/>
			<rect width="11" height="11" x="0" y="90" class="ContributionCalendar-day" rx="2" ry="2" data-level="0"/>
		</g>
		<g transform="translate(121, 0)">
			<rect width="11" height="11" x="0" y="0" class="ContributionCalendar-day" rx="2" ry="2" data-level="0"/>
			<rect width="11" height="11" x="0" y="15" class="ContributionCalendar-day" rx="2" ry="2" data-level="1"/>
			<rect width="11" height="11" x="0" y="30" class="ContributionCalendar-day" rx="2" ry="2" data-level="0"/>
			<rect width="11" height="11" x="0" y="45" class="ContributionCalendar-day" rx="2" ry="2" data-level="2"/>
			<rect width="11" height="11" x="0" y="60" class="ContributionCalendar-day" rx="2" ry="2" data-level="0"/>
			<rect width="11" height="11" x="0" y="75" class="ContributionCalendar-day" rx="2" ry="2" data-level="0"/>
			<rect width="11" height="11" x="0" y="90" class="ContributionCalendar-day" rx="2" ry="2" data-level="0"/>
		</g>
		<g transform="translate(136, 0)">
			<rect width="11" height="11" x="0" y="0" class="ContributionCalendar-day" rx="2" ry="2" data-level="0"/>
			<rect width="11" height="11" x="0" y="15" class="ContributionCalendar-day" rx="2" ry="2" data-level="1"/>
			<rect width="11" height="11" x="0" y="30" class="ContributionCalendar-day" rx="2" ry="2" data-level="2"/>
			<rect width="11" height="11" x="0" y="45" class="ContributionCalendar-day" rx="2" ry="2" data-level="2"/>
			<rect width="11" height="11" x="0" y="60" class="ContributionCalendar-day" rx="2" ry="2" data-level="3"/>
			<rect width="11" height="11" x="0" y="75" class="ContributionCalendar-day" rx="2" ry="2" data-level="4"/>
			<rect width="11" height="11" x="0" y="90" class="ContributionCalendar-day" rx="2" ry="2" data-level="0"/>
		</g>
		<g transform="translate(151, 0)">
			<rect width="11" height="11" x="0" y="0" class="ContributionCalendar-day" rx="2" ry="2" data-level="0"/>
			<rect width="11" height="11" x="0" y="15" class="ContributionCalendar-day" rx="2" ry="2" data-level="0"/>
			<rect width="11" height="11" x="0" y="30" class="ContributionCalendar-day" rx="2" ry="2" data-level="0"/>
			<rect width="11" height="11" x="0" y="45" class="ContributionCalendar-day" rx="2" ry="2" data-level="0"/>
			<rect width="11" height="11" x="0" y="60" class="ContributionCalendar-day" rx="2" ry="2" data-level="0"/>
			<rect width="11" height="11" x="0" y="75" class="ContributionCalendar-day" rx="2" ry="2" data-level="0"/>
			<rect width="11" height="11" x="0" y="90" class="ContributionCalendar-day" rx="2" ry="2" data-level="0"/>
		</g>
		<g transform="translate(166, 0)">
			<rect width="11" height="11" x="0" y="0" class="ContributionCalendar-day" rx="2" ry="2" data-level="0"/>
			<rect width="11" height="11" x="0" y="15" class="ContributionCalendar-day" rx="2" ry="2" data-level="1"/>
			<rect width="11" height="11" x="0" y="30" class="ContributionCalendar-day" rx="2" ry="2" data-level="0"/>
			<rect width="11" height="11" x="0" y="45" class="ContributionCalendar-day" rx="2" ry="2" data-level="0"/>
			<rect width="11" height="11" x="0" y="60" class="ContributionCalendar-day" rx="2" ry="2" data-level="0"/>
			<rect width="11" height="11" x="0" y="75" class="ContributionCalendar-day" rx="2" ry="2" data-level="0"/>
			<rect width="11" height="11" x="0" y="90" class="ContributionCalendar-day" rx="2" ry="2" data-level="0"/>
		</g>
		<g transform="translate(181, 0)">
			<rect width="11" height="11" x="0" y="0" class="ContributionCalendar-day" rx="2" ry="2" data-level="0"/>
			<rect width="11" height="11" x="0" y="15" class="ContributionCalendar-day" rx="2" ry="2" data-level="1"/>
			<rect width="11" height="11" x="0" y="30" class="ContributionCalendar-day" rx="2" ry="2" data-level="2"/>
			<rect width="11" height="11" x="0" y="45" class="ContributionCalendar-day" rx="2" ry="2" data-level="2"/>
			<rect width="11" height="11" x="0" y="60" class="ContributionCalendar-day" rx="2" ry="2" data-level="3"/>
			<rect width="11" height="11" x="0" y="75" class="ContributionCalendar-day" rx="2" ry="2" data-level="4"/>
			<rect width="11" height="11" x="0" y="90" class="ContributionCalendar-day" rx="2" ry="2" data-level="0"/>
		</g>
		<g transform="translate(196, 0)">
			<rect width="11" height="11" x="0" y="0" class="ContributionCalendar-day" rx="2" ry="2" data-level="0"/>
			<rect width="11" height="11" x="0" y="15" class="ContributionCalendar-day" rx="2" ry="2" data-level="1"/>
			<rect width="11" height="11" x="0" y="30" class="ContributionCalendar-day" rx="2" ry="2" data-level="0"/>
			<rect width="11" height="11" x="0" y="45" class="ContributionCalendar-day" rx="2" ry="2" data-level="0"/>
			<rect width="11" height="11" x="0" y="60" class="ContributionCalendar-day" rx="2" ry="2" data-level="0"/>
			<rect width="11" height="11" x="0" y="75" class="ContributionCalendar-day" rx="2" ry="2" data-level="0"/>
			<rect width="11" height="11" x="0" y="90" class="ContributionCalendar-day" rx="2" ry="2" data-level="0"/>
		</g>
		<g transform="translate(211, 0)">
			<rect width="11" height="11" x="0" y="0" class="ContributionCalendar-day" rx="2" ry="2" data-level="0"/>
			<rect width="11" height="11" x="0" y="15" class="ContributionCalendar-day" rx="2" ry="2" data-level="0"/>
			<rect width="11" height="11" x="0" y="30" class="ContributionCalendar-day" rx="2" ry="2" data-level="0"/>
			<rect width="11" height="11" x="0" y="45" class="ContributionCalendar-day" rx="2" ry="2" data-level="0"/>
			<rect width="11" height="11" x="0" y="60" class="ContributionCalendar-day" rx="2" ry="2" data-level="0"/>
			<rect width="11" height="11" x="0" y="75" class="ContributionCalendar-day" rx="2" ry="2" data-level="0"/>
			<rect width="11" height="11" x="0" y="90" class="ContributionCalendar-day" rx="2" ry="2" data-level="0"/>
		</g>
		<g transform="translate(226, 0)">
			<rect width="11" height="11" x="0" y="0" class="ContributionCalendar-day" rx="2" ry="2" data-level="0"/>
			<rect width="11" height="11" x="0" y="15" class="ContributionCalendar-day" rx="2" ry="2" data-level="1"/>
			<rect width="11" height="11" x="0" y="30" class="ContributionCalendar-day" rx="2" ry="2" data-level="2"/>
			<rect width="11" height="11" x="0" y="45" class="ContributionCalendar-day" rx="2" ry="2" data-level="2"/>
			<rect width="11" height="11" x="0" y="60" class="ContributionCalendar-day" rx="2" ry="2" data-level="3"/>
			<rect width="11" height="11" x="0" y="75" class="ContributionCalendar-day" rx="2" ry="2" data-level="4"/>
			<rect width="11" height="11" x="0" y="90" class="ContributionCalendar-day" rx="2" ry="2" data-level="0"/>
		</g>
		<g transform="translate(241, 0)">
			<rect width="11" height="11" x="0" y="0" class="ContributionCalendar-day" rx="2" ry="2" data-level="0"/>
			<rect width="11" height="11" x="0" y="15" class="ContributionCalendar-day" rx="2" ry="2" data-level="0"/>
			<rect width="11" height="11" x="0" y="30" class="ContributionCalendar-day" rx="2" ry="2" data-level="0"/>
			<rect width="11" height="11" x="0" y="45" class="ContributionCalendar-day" rx="2" ry="2" data-level="0"/>
			<rect width="11" height="11" x="0" y="60" class="ContributionCalendar-day" rx="2" ry="2" data-level="0"/>
			<rect width="11" height="11" x="0" y="75" class="ContributionCalendar-day" rx="2" ry="2" data-level="0"/>
			<rect width="11" height="11" x="0" y="90" class="ContributionCalendar-day" rx="2" ry="2" data-level="0"/>
		</g>
		<g transform="translate(256, 0)">
			<rect width="11" height="11" x="0" y="0" class="ContributionCalendar-day" rx="2" ry="2" data-level="0"/>
			<rect width="11" height="11" x="0" y="15" class="ContributionCalendar-day" rx="2" ry="2" data-level="1"/>
			<rect width="11" height="11" x="0" y="30" class="ContributionCalendar-day" rx="2" ry="2" data-level="2"/>
			<rect width="11" height="11" x="0" y="45" class="ContributionCalendar-day" rx="2" ry="2" data-level="2"/>
			<rect width="11" height="11" x="0" y="60" class="ContributionCalendar-day" rx="2" ry="2" data-level="3"/>
			<rect width="11" height="11" x="0" y="75" class="ContributionCalendar-day" rx="2" ry="2" data-level="4"/>
			<rect width="11" height="11" x="0" y="90" class="ContributionCalendar-day" rx="2" ry="2" data-level="0"/>
		</g>
		<g transform="translate(271, 0)">
			<rect width="11" height="11" x="0" y="0" class="ContributionCalendar-day" rx="2" ry="2" data-level="0"/>
			<rect width="11" height="11" x="0" y="15" class="ContributionCalendar-day" rx="2" ry="2" data-level="1"/>
			<rect width="11" height="11" x="0" y="30" class="ContributionCalendar-day" rx="2" ry="2" data-level="2"/>
			<rect width="11" height="11" x="0" y="45" class="ContributionCalendar-day" rx="2" ry="2" data-level="0"/>
			<rect width="11" height="11" x="0" y="60" class="ContributionCalendar-day" rx="2" ry="2" data-level="0"/>
			<rect width="11" height="11" x="0" y="75" class="ContributionCalendar-day" rx="2" ry="2" data-level="0"/>
			<rect width="11" height="11" x="0" y="90" class="ContributionCalendar-day" rx="2" ry="2" data-level="0"/>
		</g>
		<g transform="translate(286, 0)">
			<rect width="11" height="11" x="0" y="0" class="ContributionCalendar-day" rx="2" ry="2" data-level="0"/>
			<rect width="11" height="11" x="0" y="15" class="ContributionCalendar-day" rx="2" ry="2" data-level="0"/>
			<rect width="11" height="11" x="0" y="30" class="ContributionCalendar-day" rx="2" ry="2" data-level="0"/>
			<rect width="11" height="11" x="0" y="45" class="ContributionCalendar-day" rx="2" ry="2" data-level="2"/>
			<rect width="11" height="11" x="0" y="60" class="ContributionCalendar-day" rx="2" ry="2" data-level="3"/>
			<rect width="11" height="11" x="0" y="75" class="ContributionCalendar-day" rx="2" ry="2" data-level="0"/>
			<rect width="11" height="11" x="0" y="90" class="ContributionCalendar-day" rx="2" ry="2" data-level="0"/>
		</g>
		<g transform="translate(301, 0)">
			<rect width="11" height="11" x="0" y="0" class="ContributionCalendar-day" rx="2" ry="2" data-level="0"/>
			<rect width="11" height="11" x="0" y="15" class="ContributionCalendar-day" rx="2" ry="2" data-level="1"/>
			<rect width="11" height="11" x="0" y="30" class="ContributionCalendar-day" rx="2" ry="2" data-level="2"/>
			<rect width="11" height="11" x="0" y="45" class="ContributionCalendar-day" rx="2" ry="2" data-level="2"/>
			<rect width="11" height="11" x="0" y="60" class="ContributionCalendar-day" rx="2" ry="2" data-level="3"/>
			<rect width="11" height="11" x="0" y="75" class="ContributionCalendar-day" rx="2" ry="2" data-level="4"/>
			<rect width="11" height="11" x="0" y="90" class="ContributionCalendar-day" rx="2" ry="2" data-level="0"/>
		</g>
		<g transform="translate(316, 0)">
			<rect width="11" height="11" x="0" y="0" class="ContributionCalendar-day" rx="2" ry="2" data-level="0"/>
			<rect width="11" height="11" x="0" y="15" class="ContributionCalendar-day" rx="2" ry="2" data-level="0"/>
			<rect width="11" height="11" x="0" y="30" class="ContributionCalendar-day" rx="2" ry="2" data-level="0"/>
			<rect width="11" height="11" x="0" y="45" class="ContributionCalendar-day" rx="2" ry="2" data-level="0"/>
			<rect width="11" height="11" x="0" y="60" class="ContributionCalendar-day" rx="2" ry="2" data-level="0"/>
			<rect width="11" height="11" x="0" y="75" class="ContributionCalendar-day" rx="2" ry="2" data-level="0"/>
			<rect width="11" height="11" x="0" y="90" class="ContributionCalendar-day" rx="2" ry="2" data-level="0"/>
		</g>
		<g transform="translate(331, 0)">
			<rect width="11" height="11" x="0" y="0" class="ContributionCalendar-day" rx="2" ry="2" data-level="0"/>
			<rect width="11" height="11" x="0" y="15" class="ContributionCalendar-day" rx="2" ry="2" data-level="0"/>
			<rect width="11" height="11" x="0" y="30" class="ContributionCalendar-day" rx="2" ry="2" data-level="0"/>
			<rect width="11" height="11" x="0" y="45" class="ContributionCalendar-day" rx="2" ry="2" data-level="0"/>
			<rect width="11" height="11" x="0" y="60" class="ContributionCalendar-day" rx="2" ry="2" data-level="0"/>
			<rect width="11" height="11" x="0" y="75" class="ContributionCalendar-day" rx="2" ry="2" data-level="0"/>
			<rect width="11" height="11" x="0" y="90" class="ContributionCalendar-day" rx="2" ry="2" data-level="0"/>
		</g>
		<g transform="translate(346, 0)">
			<rect width="11" height="11" x="0" y="0" class="ContributionCalendar-day" rx="2" ry="2" data-level="0"/>
			<rect width="11" height="11" x="0" y="15" class="ContributionCalendar-day" rx="2" ry="2" data-level="0"/>
			<rect width="11" height="11" x="0" y="30" class="ContributionCalendar-day" rx="2" ry="2" data-level="0"/>
			<rect width="11" height="11" x="0" y="45" class="ContributionCalendar-day" rx="2" ry="2" data-level="0"/>
			<rect width="11" height="11" x="0" y="60" class="ContributionCalendar-day" rx="2" ry="2" data-level="0"/>
			<rect width="11" height="11" x="0" y="75" class="ContributionCalendar-day" rx="2" ry="2" data-level="0"/>
			<rect width="11" height="11" x="0" y="90" class="ContributionCalendar-day" rx="2" ry="2" data-level="0"/>
		</g>
		<g transform="translate(361, 0)">
			<rect width="11" height="11" x="0" y="0" class="ContributionCalendar-day" rx="2" ry="2" data-level="0"/>
			<rect width="11" height="11" x="0" y="15" class="ContributionCalendar-day" rx="2" ry="2" data-level="1"/>
			<rect width="11" height="11" x="0" y="30" class="ContributionCalendar-day" rx="2" ry="2" data-level="2"/>
			<rect width="11" height="11" x="0" y="45" class="ContributionCalendar-day" rx="2" ry="2" data-level="2"/>
			<rect width="11" height="11" x="0" y="60" class="ContributionCalendar-day" rx="2" ry="2" data-level="0"/>
			<rect width="11" height="11" x="0" y="75" class="ContributionCalendar-day" rx="2" ry="2" data-level="4"/>
			<rect width="11" height="11" x="0" y="90" class="ContributionCalendar-day" rx="2" ry="2" data-level="0"/>
		</g>
		<g transform="translate(376, 0)">
			<rect width="11" height="11" x="0" y="0" class="ContributionCalendar-day" rx="2" ry="2" data-level="0"/>
			<rect width="11" height="11" x="0" y="15" class="ContributionCalendar-day" rx="2" ry="2" data-level="1"/>
			<rect width="11" height="11" x="0" y="30" class="ContributionCalendar-day" rx="2" ry="2" data-level="0"/>
			<rect width="11" height="11" x="0" y="45" class="ContributionCalendar-day" rx="2" ry="2" data-level="2"/>
			<rect width="11" height="11" x="0" y="60" class="ContributionCalendar-day" rx="2" ry="2" data-level="0"/>
			<rect width="11" height="11" x="0" y="75" class="ContributionCalendar-day" rx="2" ry="2" data-level="4"/>
			<rect width="11" height="11" x="0" y="90" class="ContributionCalendar-day" rx="2" ry="2" data-level="0"/>
		</g>
		<g transform="translate(391, 0)">
			<rect width="11" height="11" x="0" y="0" class="ContributionCalendar-day" rx="2" ry="2" data-level="0"/>
			<rect width="11" height="11" x="0" y="15" class="ContributionCalendar-day" rx="2" ry="2" data-level="1"/>
			<rect width="11" height="11" x="0" y="30" class="ContributionCalendar-day" rx="2" ry="2" data-level="0"/>
			<rect width="11" height="11" x="0" y="45" class="ContributionCalendar-day" rx="2" ry="2" data-level="2"/>
			<rect width="11" height="11" x="0" y="60" class="ContributionCalendar-day" rx="2" ry="2" data-level="3"/>
			<rect width="11" height="11" x="0" y="75" class="ContributionCalendar-day" rx="2" ry="2" data-level="4"/>
			<rect width="11" height="11" x="0" y="90" class="ContributionCalendar-day" rx="2" ry="2" data-level="0"/>
		</g>
		<g transform="translate(406, 0)">
			<rect width="11" height="11" x="0" y="0" class="ContributionCalendar-day" rx="2" ry="2" data-level="0"/>
			<rect width="11" height="11" x="0" y="15" class="ContributionCalendar-day" rx="2" ry="2" data-level="0"/>
			<rect width="11" height="11" x="0" y="30" class="ContributionCalendar-day" rx="2" ry="2" data-level="0"/>
			<rect width="11" height="11" x="0" y="45" class="ContributionCalendar-day" rx="2" ry="2" data-level="0"/>
			<rect width="11" height="11" x="0" y="60" class="ContributionCalendar-day" rx="2" ry="2" data-level="0"/>
			<rect width="11" height="11" x="0" y="75" class="ContributionCalendar-day" rx="2" ry="2" data-level="0"/>
			<rect width="11" height="11" x="0" y="90" class="ContributionCalendar-day" rx="2" ry="2" data-level="0"/>
		</g>
		<g transform="translate(421, 0)">
			<rect width="11" height="11" x="0" y="0" class="ContributionCalendar-day" rx="2" ry="2" data-level="0"/>
			<rect width="11" height="11" x="0" y="15" class="ContributionCalendar-day" rx="2" ry="2" data-level="1"/>
			<rect width="11" height="11" x="0" y="30" class="ContributionCalendar-day" rx="2" ry="2" data-level="2"/>
			<rect width="11" height="11" x="0" y="45" class="ContributionCalendar-day" rx="2" ry="2" data-level="2"/>
			<rect width="11" height="11" x="0" y="60" class="ContributionCalendar-day" rx="2" ry="2" data-level="3"/>
			<rect width="11" height="11" x="0" y="75" class="ContributionCalendar-day" rx="2" ry="2" data-level="4"/>
			<rect width="11" height="11" x="0" y="90" class="ContributionCalendar-day" rx="2" ry="2" data-level="0"/>
		</g>
		<g transform="translate(436, 0)">
			<rect width="11" height="11" x="0" y="0" class="ContributionCalendar-day" rx="2" ry="2" data-level="0"/>
			<rect width="11" height="11" x="0" y="15" class="ContributionCalendar-day" rx="2" ry="2" data-level="1"/>
			<rect width="11" height="11" x="0" y="30" class="ContributionCalendar-day" rx="2" ry="2" data-level="0"/>
			<rect width="11" height="11" x="0" y="45" class="ContributionCalendar-day" rx="2" ry="2" data-level="2"/>
			<rect width="11" height="11" x="0" y="60" class="ContributionCalendar-day" rx="2" ry="2" data-level="0"/>
			<rect width="11" height="11" x="0" y="75" class="ContributionCalendar-day" rx="2" ry="2" data-level="0"/>
			<rect width="11" height="11" x="0" y="90" class="ContributionCalendar-day" rx="2" ry="2" data-level="0"/>
		</g>
		<g transform="translate(451, 0)">
			<rect width="11" height="11" x="0" y="0" class="ContributionCalendar-day" rx="2" ry="2" data-level="0"/>
			<rect width="11" height="11" x="0" y="15" class="ContributionCalendar-day" rx="2" ry="2" data-level="1"/>
			<rect width="11" height="11" x="0" y="30" class="ContributionCalendar-day" rx="2" ry="2" data-level="2"/>
			<rect width="11" height="11" x="0" y="45" class="ContributionCalendar-day" rx="2" ry="2" data-level="2"/>
			<rect width="11" height="11" x="0" y="60" class="ContributionCalendar-day" rx="2" ry="2" data-level="3"/>
			<rect width="11" height="11" x="0" y="75" class="ContributionCalendar-day" rx="2" ry="2" data-level="4"/>
			<rect width="11" height="11" x="0" y="90" class="ContributionCalendar-day" rx="2" ry="2" data-level="0"/>
		</g>
		<g transform="translate(466, 0)">
			<rect width="11" height="11" x="0" y="0" class="ContributionCalendar-day" rx="2" ry="2" data-level="0"/>
			<rect width="11" height="11" x="0" y="15" class="ContributionCalendar-day" rx="2" ry="2" data-level="0"/>
			<rect width="11" height="11" x="0" y="30" class="ContributionCalendar-day" rx="2" ry="2" data-level="0"/>
			<rect width="11" height="11" x="0" y="45" class="ContributionCalendar-day" rx="2" ry="2" data-level="0"/>
			<rect width="11" height="11" x="0" y="60" class="ContributionCalendar-day" rx="2" ry="2" data-level="0"/>
			<rect width="11" height="11" x="0" y="75" class="ContributionCalendar-day" rx="2" ry="2" data-level="0"/>
			<rect width="11" height="11" x="0" y="90" class="ContributionCalendar-day" rx="2" ry="2" data-level="0"/>
		</g>
		<g transform="translate(481, 0)">
			<rect width="11" height="11" x="0" y="0" class="ContributionCalendar-day" rx="2" ry="2" data-level="0"/>
			<rect width="11" height="11" x="0" y="15" class="ContributionCalendar-day" rx="2" ry="2" data-level="1"/>
			<rect width="11" height="11" x="0" y="30" class="ContributionCalendar-day" rx="2" ry="2" data-level="2"/>
			<rect width="11" height="11" x="0" y="45" class="ContributionCalendar-day" rx="2" ry="2" data-level="2"/>
			<rect width="11" height="11" x="0" y="60" class="ContributionCalendar-day" rx="2" ry="2" data-level="3"/>
			<rect width="11" height="11" x="0" y="75" class="ContributionCalendar-day" rx="2" ry="2" data-level="4"/>
			<rect width="11" height="11" x="0" y="90" class="ContributionCalendar-day" rx="2" ry="2" data-level="0"/>
		</g>
		<g transform="translate(496, 0)">
			<rect width="11" height="11" x="0" y="0" class="ContributionCalendar-day" rx="2" ry="2" data-level="0"/>
			<rect width="11" height="11" x="0" y="15" class="ContributionCalendar-day" rx="2" ry="2" data-level="1"/>
			<rect width="11" height="11" x="0" y="30" class="ContributionCalendar-day" rx="2" ry="2" data-level="2"/>
			<rect width="11" height="11" x="0" y="45" class="ContributionCalendar-day" rx="2" ry="2" data-level="0"/>
			<rect width="11" height="11" x="0" y="60" class="ContributionCalendar-day" rx="2" ry="2" data-level="0"/>
			<rect width="11" height="11" x="0" y="75" class="ContributionCalendar-day" rx="2" ry="2" data-level="0"/>
			<rect width="11" height="11" x="0" y="90" class="ContributionCalendar-day" rx="2" ry="2" data-level="0"/>
		</g>
		<g transform="translate(511, 0)">
			<rect width="11" height="11" x="0" y="0" class="ContributionCalendar-day" rx="2" ry="2" data-level="0"/>
			<rect width="11" height="11" x="0" y="15" class="ContributionCalendar-day" rx="2" ry="2" data-level="0"/>
			<rect width="11" height="11" x="0" y="30" class="ContributionCalendar-day" rx="2" ry="2" data-level="0"/>
			<rect width="11" height="11" x="0" y="45" class="ContributionCalendar-day" rx="2" ry="2" data-level="2"/>
			<rect width="11" height="11" x="0" y="60" class="ContributionCalendar-day" rx="2" ry="2" data-level="3"/>
			<rect width="11" height="11" x="0" y="75" class="ContributionCalendar-day" rx="2" ry="2" data-level="0"/>
			<rect width="11" height="11" x="0" y="90" class="ContributionCalendar-day" rx="2" ry="2" data-level="0"/>
		</g>
		<g transform="translate(526, 0)">
			<rect width="11" height="11" x="0" y="0" class="ContributionCalendar-day" rx="2" ry="2" data-level="0"/>
			<rect width="11" height="11" x="0" y="15" class="ContributionCalendar-day" rx="2" ry="2" data-level="1"/>
			<rect width="11" height="11" x="0" y="30" class="ContributionCalendar-day" rx="2" ry="2" data-level="2"/>
			<rect width="11" height="11" x="0" y="45" class="ContributionCalendar-day" rx="2" ry="2" data-level="2"/>
			<rect width="11" height="11" x="0" y="60" class="ContributionCalendar-day" rx="2" ry="2" data-level="3"/>
			<rect width="11" height="11" x="0" y="75" class="ContributionCalendar-day" rx="2" ry="2" data-level="4"/>
			<rect width="11" height="11" x="0" y="90" class="ContributionCalendar-day" rx="2" ry="2" data-level="0"/>
		</g>
		<g transform="translate(541, 0)">
			<rect width="11" height="11" x="0" y="0" class="ContributionCalendar-day" rx="2" ry="2" data-level="0"/>
			<rect width="11" height="11" x="0" y="15" class="ContributionCalendar-day" rx="2" ry="2" data-level="0"/>
			<rect width="11" height="11" x="0" y="30" class="ContributionCalendar-day" rx="2" ry="2" data-level="0"/>
			<rect width="11" height="11" x="0" y="45" class="ContributionCalendar-day" rx="2" ry="2" data-level="0"/>
			<rect width="11" height="11" x="0" y="60" class="ContributionCalendar-day" rx="2" ry="2" data-level="0"/>
			<rect width="11" height="11" x="0" y="75" class="ContributionCalendar-day" rx="2" ry="2" data-level="0"/>
			<rect width="11" height="11" x="0" y="90" class="ContributionCalendar-day" rx="2" ry="2" data-level="0"/>
		</g>
		<g transform="translate(556, 0)">
			<rect width="11" height="11" x="0" y="0" class="ContributionCalendar-day" rx="2" ry="2" data-level="0"/>
			<rect width="11" height="11" x="0" y="15" class="ContributionCalendar-day" rx="2" ry="2" data-level="1"/>
			<rect width="11" height="11" x="0" y="30" class="ContributionCalendar-day" rx="2" ry="2" data-level="2"/>
			<rect width="11" height="11" x="0" y="45" class="ContributionCalendar-day" rx="2" ry="2" data-level="2"/>
			<rect width="11" height="11" x="0" y="60" class="ContributionCalendar-day" rx="2" ry="2" data-level="3"/>
			<rect width="11" height="11" x="0" y="75" class="ContributionCalendar-day" rx="2" ry="2" data-level="4"/>
			<rect width="11" height="11" x="0" y="90" class="ContributionCalendar-day" rx="2" ry="2" data-level="0"/>
		</g>
		<g transform="translate(571, 0)">
			<rect width="11" height="11" x="0" y="0" class="ContributionCalendar-day" rx="2" ry="2" data-level="0"/>
			<rect width="11" height="11" x="0" y="15" class="ContributionCalendar-day" rx="2" ry="2" data-level="1"/>
			<rect width="11" height="11" x="0" y="30" class="ContributionCalendar-day" rx="2" ry="2" data-level="0"/>
			<rect width="11" height="11" x="0" y="45" class="ContributionCalendar-day" rx="2" ry="2" data-level="0"/>
			<rect width="11" height="11" x="0" y="60" class="ContributionCalendar-day" rx="2" ry="2" data-level="0"/>
			<rect width="11" height="11" x="0" y="75" class="ContributionCalendar-day" rx="2" ry="2" data-level="4"/>
			<rect width="11" height="11" x="0" y="90" class="ContributionCalendar-day" rx="2" ry="2" data-level="0"/>
		</g>
		<g transform="translate(586, 0)">
			<rect width="11" height="11" x="0" y="0" class="ContributionCalendar-day" rx="2" ry="2" data-level="0"/>
			<rect width="11" height="11" x="0" y="15" class="ContributionCalendar-day" rx="2" ry="2" data-level="1"/>
			<rect width="11" height="11" x="0" y="30" class="ContributionCalendar-day" rx="2" ry="2" data-level="0"/>
			<rect width="11" height="11" x="0" y="45" class="ContributionCalendar-day" rx="2" ry="2" data-level="2"/>
			<rect width="11" height="11" x="0" y="60" class="ContributionCalendar-day" rx="2" ry="2" data-level="3"/>
			<rect width="11" height="11" x="0" y="75" class="ContributionCalendar-day" rx="2" ry="2" data-level="4"/>
			<rect width="11" height="11" x="0" y="90" class="ContributionCalendar-day" rx="2" ry="2" data-level="0"/>
		</g>
		<g transform="translate(601, 0)">
			<rect width="11" height="11" x="0" y="0" class="ContributionCalendar-day" rx="2" ry="2" data-level="0"/>
			<rect width="11" height="11" x="0" y="15" class="ContributionCalendar-day" rx="2" ry="2" data-level="0"/>
			<rect width="11" height="11" x="0" y="30" class="ContributionCalendar-day" rx="2" ry="2" data-level="0"/>
			<rect width="11" height="11" x="0" y="45" class="ContributionCalendar-day" rx="2" ry="2" data-level="0"/>
			<rect width="11" height="11" x="0" y="60" class="ContributionCalendar-day" rx="2" ry="2" data-level="0"/>
			<rect width="11" height="11" x="0" y="75" class="ContributionCalendar-day" rx="2" ry="2" data-level="0"/>
			<rect width="11" height="11" x="0" y="90" class="ContributionCalendar-day" rx="2" ry="2" data-level="0"/>
		</g>
		<g transform="translate(616, 0)">
			<rect width="11" height="11" x="0" y="0" class="ContributionCalendar-day" rx="2" ry="2" data-level="0"/>
			<rect width="11" height="11" x="0" y="15" class="ContributionCalendar-day" rx="2" ry="2" data-level="1"/>
			<rect width="11" height="11" x="0" y="30" class="ContributionCalendar-day" rx="2" ry="2" data-level="2"/>
			<rect width="11" height="11" x="0" y="45" class="ContributionCalendar-day" rx="2" ry="2" data-level="2"/>
			<rect width="11" height="11" x="0" y="60" class="ContributionCalendar-day" rx="2" ry="2" data-level="3"/>
			<rect width="11" height="11" x="0" y="75" class="ContributionCalendar-day" rx="2" ry="2" data-level="4"/>
			<rect width="11" height="11" x="0" y="90" class="ContributionCalendar-day" rx="2" ry="2" data-level="0"/>
		</g>
		<g transform="translate(631, 0)">
			<rect width="11" height="11" x="0" y="0" class="ContributionCalendar-day" rx="2" ry="2" data-level="0"/>
			<rect width="11" height="11" x="0" y="15" class="ContributionCalendar-day" rx="2" ry="2" data-level="0"/>
			<rect width="11" height="11" x="0" y="30" class="ContributionCalendar-day" rx="2" ry="2" data-level="0"/>
			<rect width="11" height="11" x="0" y="45" class="ContributionCalendar-day" rx="2" ry="2" data-level="2"/>
			<rect width="11" height="11" x="0" y="60" class="ContributionCalendar-day" rx="2" ry="2" data-level="0"/>
			<rect width="11" height="11" x="0" y="75" class="ContributionCalendar-day" rx="2" ry="2" data-level="0"/>
			<rect width="11" height="11" x="0" y="90" class="ContributionCalendar-day" rx="2" ry="2" data-level="0"/>
		</g>
		<g transform="translate(646, 0)">
			<rect width="11" height="11" x="0" y="0" class="ContributionCalendar-day" rx="2" ry="2" data-level="0"/>
			<rect width="11" height="11" x="0" y="15" class="ContributionCalendar-day" rx="2" ry="2" data-level="1"/>
			<rect width="11" height="11" x="0" y="30" class="ContributionCalendar-day" rx="2" ry="2" data-level="2"/>
			<rect width="11" height="11" x="0" y="45" class="ContributionCalendar-day" rx="2" ry="2" data-level="2"/>
			<rect width="11" height="11" x="0" y="60" class="ContributionCalendar-day" rx="2" ry="2" data-level="3"/>
			<rect width="11" height="11" x="0" y="75" class="ContributionCalendar-day" rx="2" ry="2" data-level="4"/>
			<rect width="11" height="11" x="0" y="90" class="ContributionCalendar-day" rx="2" ry="2" data-level="0"/>
		</g>
		<g transform="translate(661, 0)">
			<rect width="11" height="11" x="0" y="0" class="ContributionCalendar-day" rx="2" ry="2" data-level="0"/>
			<rect width="11" height="11" x="0" y="15" class="ContributionCalendar-day" rx="2" ry="2" data-level="0"/>
			<rect width="11" height="11" x="0" y="30" class="ContributionCalendar-day" rx="2" ry="2" data-level="0"/>
			<rect width="11" height="11" x="0" y="45" class="ContributionCalendar-day" rx="2" ry="2" data-level="0"/>
			<rect width="11" height="11" x="0" y="60" class="ContributionCalendar-day" rx="2" ry="2" data-level="0"/>
			<rect width="11" height="11" x="0" y="75" class="ContributionCalendar-day" rx="2" ry="2" data-level="0"/>
			<rect width="11" height="11" x="0" y="90" class="ContributionCalendar-day" rx="2" ry="2" data-level="0"/>
		</g>
		<g transform="translate(676, 0)">
			<rect width="11" height="11" x="0" y="0" class="ContributionCalendar-day" rx="2" ry="2" data-level="0"/>
			<rect width="11" height="11" x="0" y="15" class="ContributionCalendar-day" rx="2" ry="2" data-level="1"/>
			<rect width="11" height="11" x="0" y="30" class="ContributionCalendar-day" rx="2" ry="2" data-level="2"/>
			<rect width="11" height="11" x="0" y="45" class="ContributionCalendar-day" rx="2" ry="2" data-level="2"/>
			<rect width="11" height="11" x="0" y="60" class="ContributionCalendar-day" rx="2" ry="2" data-level="0"/>
			<rect width="11" height="11" x="0" y="75" class="ContributionCalendar-day" rx="2" ry="2" data-level="0"/>
			<rect width="11" height="11" x="0" y="90" class="ContributionCalendar-day" rx="2" ry="2" data-level="0"/>
		</g>
		<g transform="translate(691, 0)">
			<rect width="11" height="11" x="0" y="0" class="ContributionCalendar-day" rx="2" ry="2" data-level="0"/>
			<rect width="11" height="11" x="0" y="15" class="ContributionCalendar-day" rx="2" ry="2" data-level="0"/>
			<rect width="11" height="11" x="0" y="30" class="ContributionCalendar-day" rx="2" ry="2" data-level="0"/>
			<rect width="11" height="11" x="0" y="45" class="ContributionCalendar-day" rx="2" ry="2" data-level="0"/>
			<rect width="11" height="11" x="0" y="60" class="ContributionCalendar-day" rx="2" ry="2" data-level="3"/>
			<rect width="11" height="11" x="0" y="75" class="ContributionCalendar-day" rx="2" ry="2" data-level="0"/>
			<rect width="11" height="11" x="0" y="90" class="ContributionCalendar-day" rx="2" ry="2" data-level="0"/>
		</g>
		<g transform="translate(706, 0)">
			<rect width="11" height="11" x="0" y="0" class="ContributionCalendar-day" rx="2" ry="2" data-level="0"/>
			<rect width="11" height="11" x="0" y="15" class="ContributionCalendar-day" rx="2" ry="2" data-level="0"/>
			<rect width="11" height="11" x="0" y="30" class="ContributionCalendar-day" rx="2" ry="2" data-level="0"/>
			<rect width="11" height="11" x="0" y="45" class="ContributionCalendar-day" rx="2" ry="2" data-level="0"/>
			<rect width="11" height="11" x="0" y="60" class="ContributionCalendar-day" rx="2" ry="2" data-level="0"/>
			<rect width="11" height="11" x="0" y="75" class="ContributionCalendar-day" rx="2" ry="2" data-level="4"/>
			<rect width="11" height="11" x="0" y="90" class="ContributionCalendar-day" rx="2" ry="2" data-level="0"/>
		</g>
		<g transform="translate(721, 0)">
			<rect width="11" height="11" x="0" y="0" class="ContributionCalendar-day" rx="2" ry="2" data-level="0"/>
			<rect width="11" height="11" x="0" y="15" class="ContributionCalendar-day" rx="2" ry="2" data-level="1"/>
			<rect width="11" height="11" x="0" y="30" class="ContributionCalendar-day" rx="2" ry="2" data-level="2"/>
			<rect width="11" height="11" x="0" y="45" class="ContributionCalendar-day" rx="2" ry="2" data-level="2"/>
			<rect width="11" height="11" x="0" y="60" class="ContributionCalendar-day" rx="2" ry="2" data-level="3"/>
			<rect width="11" height="11" x="0" y="75" class="ContributionCalendar-day" rx="2" ry="2" data-level="4"/>
			<rect width="11" height="11" x="0" y="90" class="ContributionCalendar-day" rx="2" ry="2" data-level="0"/>
		</g>
		<g transform="translate(736, 0)">
			<rect width="11" height="11" x="0" y="0" class="ContributionCalendar-day" rx="2" ry="2" data-level="0"/>
			<rect width="11" height="11" x="0" y="15" class="ContributionCalendar-day" rx="2" ry="2" data-level="0"/>
			<rect width="11" height="11" x="0" y="30" class="ContributionCalendar-day" rx="2" ry="2" data-level="0"/>
			<rect width="11" height="11" x="0" y="45" class="ContributionCalendar-day" rx="2" ry="2" data-level="0"/>
			<rect width="11" height="11" x="0" y="60" class="ContributionCalendar-day" rx="2" ry="2" data-level="0"/>
			<rect width="11" height="11" x="0" y="75" class="ContributionCalendar-day" rx="2" ry="2" data-level="0"/>
			<rect width="11" height="11" x="0" y="90" class="ContributionCalendar-day" rx="2" ry="2" data-level="0"/>
		</g>
		<g transform="translate(751, 0)">
			<rect width="11" height="11" x="0" y="0" class="ContributionCalendar-day" rx="2" ry="2" data-level="0"/>
			<rect width="11" height="11" x="0" y="15" class="ContributionCalendar-day" rx="2" ry="2" data-level="1"/>
			<rect width="11" height="11" x="0" y="30" class="ContributionCalendar-day" rx="2" ry="2" data-level="2"/>
			<rect width="11" height="11" x="0" y="45" class="ContributionCalendar-day" rx="2" ry="2" data-level="2"/>
			<rect width="11" height="11" x="0" y="60" class="ContributionCalendar-day" rx="2" ry="2" data-level="3"/>
			<rect width="11" height="11" x="0" y="75" class="ContributionCalendar-day" rx="2" ry="2" data-level="4"/>
			<rect width="11" height="11" x="0" y="90" class="ContributionCalendar-day" rx="2" ry="2" data-level="0"/>
		</g>
		<g transform="translate(766, 0)">
			<rect width="11" height="11" x="0" y="0" class="ContributionCalendar-day" rx="2" ry="2" data-level="0"/>
			<rect width="11" height="11" x="0" y="15" class="ContributionCalendar-day" rx="2" ry="2" data-level="0"/>
			<rect width="11" height="11" x="0" y="30" class="ContributionCalendar-day" rx="2" ry="2" data-level="0"/>
			<rect width="11" height="11" x="0" y="45" class="ContributionCalendar-day" rx="2" ry="2" data-level="0"/>
			<rect width="11" height="11" x="0" y="60" class="ContributionCalendar-day" rx="2" ry="2" data-level="0"/>
			<rect width="11" height="11" x="0" y="75" class="ContributionCalendar-day" rx="2" ry="2" data-level="0"/>
			<rect width="11" height="11" x="0" y="90" class="ContributionCalendar-day" rx="2" ry="2" data-level="0"/>
		</g>
		<g transform="translate(781, 0)">
			<rect width="11" height="11" x="0" y="0" class="ContributionCalendar-day" rx="2" ry="2" data-level="0"/>
			<rect width="11" height="11" x="0" y="15" class="ContributionCalendar-day" rx="2" ry="2" data-level="0"/>
			<rect width="11" height="11" x="0" y="30" class="ContributionCalendar-day" rx="2" ry="2" data-level="0"/>
			<rect width="11" height="11" x="0" y="45" class="ContributionCalendar-day" rx="2" ry="2" data-level="0"/>
			<rect width="11" height="11" x="0" y="60" class="ContributionCalendar-day" rx="2" ry="2" data-level="0"/>
			<rect width="11" height="11" x="0" y="75" class="ContributionCalendar-day" rx="2" ry="2" data-level="0"/>
			<rect width="11" height="11" x="0" y="90" class="ContributionCalendar-day" rx="2" ry="2" data-level="0"/>
		</g>
		<g transform="translate(796, 0)">
			<rect width="11" height="11" x="0" y="0" class="ContributionCalendar-day" rx="2" ry="2" data-level="0"/>
			<rect width="11" height="11" x="0" y="15" class="ContributionCalendar-day" rx="2" ry="2" data-level="0"/>
			<rect width="11" height="11" x="0" y="30" class="ContributionCalendar-day" rx="2" ry="2" data-level="0"/>
			<rect width="11" height="11" x="0" y="45" class="ContributionCalendar-day" rx="2" ry="2" data-level="0"/>
		</g>
		<text x="31" y="-8" class="ContributionCalendar-label">Oct</text>
		<text x="91" y="-8" class="ContributionCalendar-label">Nov</text>
		<text x="166" y="-8" class="ContributionCalendar-label">Dec</text>
		<text x="226" y="-8" class="ContributionCalendar-label">Jan</text>
		<text x="301" y="-8" class="ContributionCalendar-label">Feb</text>
		<text x="361" y="-8" class="ContributionCalendar-label">Mar</text>
		<text x="421" y="-8" class="ContributionCalendar-label">Apr</text>
		<text x="481" y="-8" class="ContributionCalendar-label">May</text>
		<text x="556" y="-8" class="ContributionCalendar-label">Jun</text>
		<text x="616" y="-8" class="ContributionCalendar-label">Jul</text>
		<text x="676" y="-8" class="ContributionCalendar-label">Aug</text>
		<text x="751" y="-8" class="ContributionCalendar-label">Sep</text>
		<text text-anchor="start" class="ContributionCalendar-label" dx="-10" dy="8" style="display:none;">Sun</text>
		<text text-anchor="start" class="ContributionCalendar-label" dx="-10" dy="25">Mon</text>
		<text text-anchor="start" class="ContributionCalendar-label" dx="-10" dy="32" style="display:none;">Tue</text>
		<text text-anchor="start" class="ContributionCalendar-label" dx="-10" dy="56">Wed</text>
		<text text-anchor="start" class="ContributionCalendar-label" dx="-10" dy="57" style="display:none;">Thu</text>
		<text text-anchor="start" class="ContributionCalendar-label" dx="-10" dy="85">Fri</text>
		<text text-anchor="start" class="ContributionCalendar-label" dx="-10" dy="81" style="display:none;">Sat</text>
	</g>
</svg>
